<?xml version="1.0" standalone="no"?>
<!DOCTYPE svg PUBLIC "-//W3C//DTD SVG 20010904//EN"
 "http://www.w3.org/TR/2001/REC-SVG-20010904/DTD/svg10.dtd">
<svg version="1.0" xmlns="http://www.w3.org/2000/svg"
 width="512.000000pt" height="512.000000pt" viewBox="0 0 512.000000 512.000000"
 preserveAspectRatio="xMidYMid meet">

<g transform="translate(0.000000,512.000000) scale(0.100000,-0.100000)"
fill="#000000" stroke="none">
<path d="M2365 4443 c-22 -2 -88 -12 -147 -23 -613 -115 -1116 -508 -1382
-1082 -174 -375 -214 -846 -106 -1258 107 -407 354 -775 690 -1028 237 -179
525 -304 820 -357 143 -25 408 -31 557 -11 656 87 1201 486 1481 1087 62 130
104 260 139 426 24 117 27 148 27 353 0 169 -4 249 -17 321 -163 924 -955
1588 -1880 1577 -78 -1 -160 -3 -182 -5z m709 -759 c14 -5 16 -32 16 -194 l0
-188 -133 -4 c-143 -4 -169 -12 -203 -63 -23 -34 -33 -263 -13 -276 8 -5 87
-9 177 -9 l162 0 0 -32 c0 -43 -29 -339 -35 -355 -3 -10 -43 -13 -155 -13
l-150 0 -2 -562 -3 -563 -235 0 -235 0 -3 563 c-2 439 -5 562 -15 563 -6 1
-49 1 -94 -1 -133 -3 -123 -21 -123 206 l0 194 114 0 114 0 4 188 c6 214 20
279 85 372 84 119 175 162 368 171 191 8 341 10 359 3z"/>
</g>
</svg>
