<?xml version="1.0" standalone="no"?>
<!DOCTYPE svg PUBLIC "-//W3C//DTD SVG 20010904//EN"
 "http://www.w3.org/TR/2001/REC-SVG-20010904/DTD/svg10.dtd">
<svg version="1.0" xmlns="http://www.w3.org/2000/svg"
 width="300.000000pt" height="168.000000pt" viewBox="0 0 300.000000 168.000000"
 preserveAspectRatio="xMidYMid meet">

<g transform="translate(0.000000,168.000000) scale(0.100000,-0.100000)"
fill="#000000" stroke="none">
<path d="M1145 1556 c-43 -19 -94 -74 -105 -115 -5 -20 -10 -110 -10 -201 l0
-165 50 0 c28 0 51 -4 52 -10 0 -5 4 44 8 110 8 137 24 182 87 234 54 45 88
51 272 51 180 0 222 -8 276 -52 68 -56 79 -93 83 -273 5 -207 -4 -250 -67
-316 -26 -27 -45 -52 -42 -56 3 -3 1 -3 -5 0 -6 3 -28 0 -50 -8 -21 -8 -32
-15 -24 -16 22 -2 23 -2 50 6 l25 7 -24 -21 c-13 -11 -18 -21 -11 -21 6 0 10
-6 7 -14 -4 -10 4 -18 21 -24 26 -9 26 -10 -18 -20 -42 -11 -39 -11 42 -8 98
3 135 20 179 85 l24 36 0 341 0 341 -29 41 c-16 23 -46 50 -70 62 -40 19 -60
20 -367 20 -245 -1 -331 -4 -354 -14z"/>
<path d="M1290 1371 c-19 -10 -45 -36 -57 -57 -20 -35 -23 -52 -23 -174 1
-108 3 -132 13 -120 20 24 55 23 63 -3 7 -21 7 -21 14 -2 6 18 9 17 29 -15 11
-19 21 -30 21 -25 0 6 -8 21 -17 35 -39 55 -23 165 31 221 78 81 196 80 272
-2 72 -78 70 -179 -5 -257 -22 -22 -53 -43 -70 -47 -17 -4 -31 -11 -31 -17 0
-6 11 -8 28 -4 20 5 23 4 12 -4 -16 -10 -10 -13 30 -11 14 0 19 -2 13 -5 -21
-9 -15 -24 10 -24 18 0 19 -2 7 -10 -13 -8 -12 -10 5 -11 14 -1 10 -4 -10 -9
l-30 -8 37 -1 c20 0 48 3 61 8 32 12 76 56 88 88 5 13 9 99 9 191 0 154 -2
170 -23 206 -39 68 -66 76 -267 76 -152 0 -180 -3 -210 -19z m420 -46 c26 -32
-13 -81 -47 -59 -35 22 -23 74 17 74 10 0 23 -7 30 -15z"/>
<path d="M1439 1205 c-27 -14 -59 -69 -59 -99 0 -31 38 -92 65 -104 103 -47
205 48 162 151 -26 60 -107 85 -168 52z"/>
<path d="M793 508 c-55 -61 -57 -138 -4 -138 12 0 12 3 3 12 -17 17 -15 54 4
94 30 63 37 41 32 -111 -3 -80 -1 -145 3 -145 21 0 29 49 29 174 0 136 0 136
-23 136 -13 0 -33 -10 -44 -22z"/>
<path d="M1240 501 c0 -26 -4 -31 -25 -31 -14 0 -25 -4 -25 -10 0 -5 9 -10 20
-10 18 0 20 -7 20 -58 0 -36 -6 -66 -15 -78 -12 -16 -14 -17 -15 -2 0 9 -14
28 -30 42 -27 22 -29 28 -20 47 16 29 0 45 -30 29 -17 -9 -21 -18 -17 -38 3
-17 -4 -40 -23 -71 -33 -52 -38 -47 -42 44 -3 56 -5 60 -29 63 -22 3 -30 -4
-48 -40 l-21 -43 0 43 c0 35 -3 42 -20 42 -18 0 -20 -7 -20 -74 0 -41 3 -81 6
-90 10 -26 31 -18 38 15 8 44 43 119 54 119 6 0 8 -17 5 -39 -3 -22 -2 -56 1
-76 10 -53 42 -45 85 23 28 43 36 50 49 40 38 -32 30 -88 -10 -67 -26 14 -52
-6 -28 -21 29 -19 69 -10 105 21 30 27 35 28 35 12 0 -44 49 -57 74 -21 l16
22 16 -22 c18 -26 41 -28 71 -7 18 13 22 13 33 0 16 -19 34 -19 50 0 11 14 15
14 32 -2 16 -14 24 -15 49 -6 16 6 29 9 29 6 0 -3 -18 -23 -41 -45 -47 -46
-49 -74 -6 -98 27 -14 29 -14 53 13 18 22 24 39 24 77 0 37 7 59 29 92 16 24
32 53 35 66 4 12 15 22 25 22 16 0 18 -6 13 -45 -7 -69 38 -121 75 -84 8 8 17
7 32 -3 18 -11 26 -11 50 3 27 16 30 16 45 1 14 -14 19 -15 38 -3 16 10 23 10
26 2 2 -6 12 -11 23 -11 16 0 19 7 19 43 1 23 7 56 14 72 l13 30 6 -35 c4 -19
8 -46 9 -60 5 -47 32 -34 46 22 17 75 32 84 32 19 0 -61 13 -91 40 -91 22 0
43 33 37 58 -3 12 -5 11 -6 -5 -1 -27 -20 -40 -32 -22 -5 8 -9 42 -9 76 0 52
-3 64 -20 73 -18 10 -22 7 -35 -24 -8 -20 -15 -43 -15 -51 0 -9 -4 -13 -10
-10 -5 3 -10 23 -10 45 0 24 -5 40 -15 43 -15 6 -22 -1 -42 -43 l-11 -25 -1
33 c-1 21 -6 32 -16 32 -11 0 -15 -12 -15 -49 0 -51 -16 -111 -30 -111 -17 0
-22 23 -21 92 1 70 1 70 -24 66 -14 -3 -28 -1 -31 3 -9 16 -40 10 -59 -11 -11
-12 -20 -43 -24 -82 -6 -64 -25 -87 -39 -48 -5 13 -5 43 -1 69 8 57 4 64 -32
59 -20 -3 -29 0 -29 9 0 9 -7 13 -17 11 -13 -3 -17 -12 -16 -32 1 -16 -8 -47
-20 -70 l-22 -41 -3 69 c-3 62 -5 68 -22 63 -11 -3 -23 -1 -26 4 -10 17 -43 9
-63 -17 -14 -18 -21 -41 -21 -70 0 -52 -8 -74 -26 -74 -15 0 -18 28 -14 114 2
48 1 49 -24 44 -15 -3 -29 -1 -32 3 -9 15 -40 10 -57 -9 -9 -10 -19 -34 -23
-53 -9 -52 -25 -89 -39 -89 -18 0 -25 23 -25 78 0 71 9 92 36 92 12 0 26 5 29
10 4 6 -6 10 -24 10 -25 0 -30 4 -33 27 -2 17 -10 29 -20 31 -14 3 -18 -3 -18
-27z m184 -107 c20 -52 -16 -146 -45 -117 -15 15 -14 100 2 119 15 19 35 18
43 -2z m182 -9 c14 -58 -21 -134 -49 -106 -16 16 -15 94 2 114 20 24 40 21 47
-8z m308 9 c12 -31 6 -82 -12 -104 -26 -32 -42 -17 -42 40 0 61 7 80 30 80 10
0 21 -7 24 -16z m-308 -240 c-4 -15 -14 -24 -26 -24 -28 0 -26 39 3 76 l22 29
3 -29 c2 -16 1 -39 -2 -52z"/>
</g>
</svg>
