<?xml version="1.0" standalone="no"?>
<!DOCTYPE svg PUBLIC "-//W3C//DTD SVG 20010904//EN"
 "http://www.w3.org/TR/2001/REC-SVG-20010904/DTD/svg10.dtd">
<svg version="1.0" xmlns="http://www.w3.org/2000/svg"
 width="268.000000pt" height="188.000000pt" viewBox="0 0 268.000000 188.000000"
 preserveAspectRatio="xMidYMid meet">

<g transform="translate(0.000000,188.000000) scale(0.100000,-0.100000)"
fill="#000000" stroke="none">
<path d="M990 1874 c-219 -6 -528 -25 -620 -39 -104 -15 -163 -41 -219 -95
-109 -106 -144 -303 -144 -800 0 -277 12 -452 39 -589 38 -186 137 -277 332
-306 227 -34 891 -51 1377 -36 610 19 703 36 804 146 100 109 112 182 118 725
7 648 -16 772 -166 887 -73 56 -171 76 -466 93 -183 10 -850 19 -1055 14z
m448 -734 c188 -107 341 -197 341 -200 0 -4 -668 -390 -690 -398 -5 -2 -9 177
-9 398 0 221 4 400 9 398 4 -1 162 -91 349 -198z"/>
</g>
</svg>
